<svg xmlns="http://www.w3.org/2000/svg" width="19.929" height="19.929"><defs><style>.a{fill:rgba(13,13,13,.29)}</style></defs><path class="a" d="M17.594 1.557h-.934V0H15.1v1.557H4.827V0H3.27v1.557h-.935A2.338 2.338 0 000 3.892v13.7a2.338 2.338 0 002.335 2.335h15.259a2.338 2.338 0 002.335-2.335v-13.7a2.338 2.338 0 00-2.335-2.335zm.778 16.037a.779.779 0 01-.778.778H2.335a.779.779 0 01-.778-.778V7.318h16.815zm0-11.833H1.557V3.892a.779.779 0 01.778-.778h.935v1.557h1.557V3.114H15.1v1.557h1.56V3.114h.934a.779.779 0 01.778.778z"/><path class="a" d="M3.43 8.429h1v2h-1zM6.429 8.429h1v2h-1zM8.429 8.429h3v2h-3zM12.429 8.429h1v2h-1zM15.43 8.429h2v2h-2zM3.43 12.429h1v1h-1zM6.429 12.429h1v1h-1zM8.429 12.429h3v1h-3zM12.429 12.429h1v1h-1zM3.43 15.43h1v1h-1zM6.429 15.43h1v1h-1zM8.429 15.43h3v1h-3zM12.429 15.43h1v1h-1zM15.43 12.429h2v1h-2z"/></svg>